<svg xmlns="http://www.w3.org/2000/svg"
 xmlns:xlink="http://www.w3.org/1999/xlink"
 width="27px" height="27px"  viewBox="0 0 27 27">
<path fill-rule="evenodd"  fill="#444444"
 d="M1.999939,2.0 C1.999939,2.0 25.999878,2.0 25.999878,2.0 C25.999878,2.0 25.999878,26.0 25.999878,26.0 C25.999878,26.0 1.999939,26.0 1.999939,26.0 C1.999939,26.0 1.999939,2.0 1.999939,2.0 ZM19.999634,8.999512 C19.999634,8.999512 19.999634,9.999023 19.999634,9.999023 C19.999634,10.551758 20.447449,10.999512 20.999634,10.999512 C21.551819,10.999512 21.999634,10.551758 21.999634,9.999023 C21.999634,8.999512 21.999634,8.999512 21.999634,8.999512 C21.999634,8.999512 22.999634,8.999512 22.999634,8.999512 C23.551758,8.999512 23.999573,8.55127 23.999573,7.9995117 C23.999573,7.4472656 23.551758,6.9990234 22.999634,6.9990234 C21.999634,6.9990234 21.999634,6.9990234 21.999634,6.9990234 C21.999634,6.9990234 21.999634,5.9990234 21.999634,5.9990234 C21.999634,5.4467773 21.551819,4.9995117 20.999634,4.9995117 C20.447449,4.9995117 19.999634,5.4467773 19.999634,5.9990234 C19.999634,6.9990234 19.999634,6.9990234 19.999634,6.9990234 C19.999634,6.9990234 18.999695,6.9990234 18.999695,6.9990234 C18.44751,6.9990234 17.999695,7.4472656 17.999695,7.9995117 C17.999695,8.55127 18.44751,8.999512 18.999695,8.999512 C18.999695,8.999512 19.999634,8.999512 19.999634,8.999512 ZM21.999634,13.999512 C21.999634,19.999023 21.999634,19.999023 21.999634,19.999023 C21.999634,20.551758 21.551819,20.999023 20.999634,20.999023 C6.999634,20.999023 6.999634,20.999023 6.999634,20.999023 C6.4474487,20.999023 5.999634,20.551758 5.999634,19.999023 C5.999634,10.40918 5.999634,10.40918 5.999634,10.40918 C5.999634,10.40918 11.879517,16.299316 11.879517,16.299316 C13.050903,17.469238 14.948364,17.469238 16.119629,16.299316 C18.589844,13.82959 18.589844,13.82959 18.589844,13.82959 C18.98169,13.437012 18.98169,12.801758 18.589844,12.408691 C18.197693,12.01709 17.561829,12.01709 17.169678,12.408691 C14.69989,14.878906 14.69989,14.878906 14.69989,14.878906 C14.310791,15.260254 13.688477,15.260254 13.299805,14.878906 C7.40979,8.999512 7.40979,8.999512 7.40979,8.999512 C7.40979,8.999512 14.999634,8.999512 14.999634,8.999512 C15.551819,8.999512 15.999634,8.55127 15.999634,7.9995117 C15.999634,7.4472656 15.551819,6.9990234 14.999634,6.9990234 C6.999634,6.9990234 6.999634,6.9990234 6.999634,6.9990234 C5.3427734,6.9990234 3.9995728,8.342773 3.9995728,9.999023 C3.9995728,19.999023 3.9995728,19.999023 3.9995728,19.999023 C3.9995728,21.65625 5.3427734,22.998535 6.999634,22.998535 C20.999634,22.998535 20.999634,22.998535 20.999634,22.998535 C22.656494,22.998535 23.999573,21.65625 23.999573,19.999023 C23.999573,13.999512 23.999573,13.999512 23.999573,13.999512 C23.999573,13.446777 23.551758,12.999512 22.999634,12.999512 C22.44757,12.999512 21.999634,13.446777 21.999634,13.999512 Z"/>
</svg>