<svg xmlns="http://www.w3.org/2000/svg" width="20" height="11" viewBox="0 0 20 11"><g><g><path fill="#17bebb" d="M18.797.744c-.258 1.18-2.727 4.658-2.727 4.658-.214.344-.3.516 0 .902.215.3.923.901 1.396 1.46.87.98 1.526 1.806 1.709 2.374.167.572-.123.86-.701.86h-2.027c-.773 0-1-.615-2.373-1.99C12.872 7.85 12.357 7.7 12.056 7.7c-.408 0-.53.115-.53.694v1.817c0 .499-.16.788-1.447.788-2.147 0-4.506-1.303-6.18-3.708C1.386 3.771.698 1.109.698.572.7.272.816 0 1.395 0h2.027c.517 0 .712.227.907.788.99 2.887 2.662 5.41 3.348 5.41.258 0 .377-.119.377-.773V2.44C7.977 1.066 7.247.954 7.247.465c0-.227.194-.466.516-.466h3.184c.43 0 .572.23.572.745v4.014c0 .43.193.58.322.58.258 0 .473-.15.945-.622 1.46-1.632 2.49-4.144 2.49-4.144.129-.3.366-.573.882-.573h2.026c.613 0 .741.316.613.745z"/></g></g></svg>