<svg xmlns="http://www.w3.org/2000/svg"
 xmlns:xlink="http://www.w3.org/1999/xlink"
 width="26px" height="27px"  viewBox="0 0 26 27">
<path fill-rule="evenodd"  fill="#444444"
 d="M1.0,2.0 C1.0,2.0 25.0,2.0 25.0,2.0 C25.0,2.0 25.0,26.0 25.0,26.0 C25.0,26.0 1.0,26.0 1.0,26.0 C1.0,26.0 1.0,2.0 1.0,2.0 ZM13.56781,24.850586 C13.56781,24.850586 13.56781,24.850586 13.56781,24.850586 C11.64624,24.841309 9.758423,24.349121 8.079529,23.419922 C1.9998779,25.009766 1.9998779,25.009766 1.9998779,25.009766 C1.9998779,25.009766 3.5997314,19.096191 3.5997314,19.096191 C2.567749,17.373535 2.015564,15.409668 1.9998779,13.405273 C2.017395,7.116211 7.1523438,2.0263672 13.4823,2.0239258 C19.812744,2.020996 24.952148,7.1064453 24.97583,13.39502 C24.999084,19.683594 19.897766,24.80664 13.56781,24.850586 C13.56781,24.850586 13.56781,24.850586 13.56781,24.850586 ZM13.56781,3.979004 C10.114624,4.0180664 6.9485474,5.897461 5.2767944,8.899902 C3.6054688,11.901855 3.6860352,15.564941 5.487549,18.492188 C5.711853,18.857422 5.711853,18.857422 5.711853,18.857422 C5.711853,18.857422 4.751831,22.338867 4.751831,22.338867 C4.751831,22.338867 8.399536,21.353516 8.399536,21.353516 C8.399536,21.353516 8.75177,21.560059 8.75177,21.560059 C10.207092,22.411621 11.862732,22.8667 13.551514,22.879395 C13.551514,22.879395 13.551514,22.879395 13.551514,22.879395 C18.853455,22.879395 23.15155,18.608887 23.15155,13.341797 C23.15155,8.074219 18.853455,3.803711 13.551514,3.803711 C13.56781,3.979004 13.56781,3.979004 13.56781,3.979004 ZM19.167725,17.52246 C18.743958,18.22461 18.040588,18.71582 17.23175,18.873535 C16.634033,18.981934 16.019104,18.943848 15.439819,18.762695 C14.894714,18.593262 14.360535,18.391602 13.839905,18.158203 C11.861816,17.171875 10.174744,15.693359 8.943787,13.866211 C8.274536,13.019531 7.8688354,11.997559 7.77594,10.925293 C7.756592,10.024902 8.123047,9.157715 8.783813,8.541016 C8.978394,8.321777 9.257507,8.194336 9.551575,8.191406 C9.999878,8.191406 9.999878,8.191406 9.999878,8.191406 C10.175537,8.191406 10.4157715,8.191406 10.639587,8.684082 C10.863525,9.176758 11.455566,10.655273 11.535767,10.79834 C11.61554,10.952637 11.61554,11.136719 11.535767,11.291016 C11.464844,11.463867 11.367981,11.625 11.247864,11.768066 C11.10376,11.942871 10.943787,12.149414 10.815796,12.276855 C10.687866,12.403809 10.527893,12.5625 10.687866,12.848633 C11.122986,13.578613 11.661987,14.242676 12.287781,14.819824 C12.969116,15.418457 13.748352,15.896973 14.591919,16.234863 C14.879761,16.37793 15.055542,16.361816 15.21582,16.234863 C15.3758545,16.107422 15.935913,15.408203 16.127808,15.12207 C16.319763,14.836426 16.511658,14.883789 16.7677,14.979004 C17.02356,15.074219 18.447754,15.7578125 18.735596,15.900879 C19.02356,16.043945 19.199646,16.107422 19.279907,16.234863 C19.349121,16.650879 19.310547,17.077148 19.167725,17.475098 C19.167725,17.52246 19.167725,17.52246 19.167725,17.52246 Z"/>
</svg>