<svg xmlns="http://www.w3.org/2000/svg" width="23" height="23" viewBox="0 0 23 23"><g><g><path fill="#444" d="M6.08 21.42L0 23.01l1.6-5.914a11.242 11.242 0 0 1-1.6-5.69C.017 5.115 5.152.025 11.482.023c6.33-.003 11.47 5.082 11.494 11.37.023 6.29-5.078 11.413-11.408 11.456a11.452 11.452 0 0 1-5.488-1.43zM11.568 1.98a9.61 9.61 0 0 0-8.291 4.92 9.485 9.485 0 0 0 .21 9.593l.225.366-.96 3.481 3.648-.986.352.207a9.65 9.65 0 0 0 4.8 1.32c5.301 0 9.6-4.27 9.6-9.538 0-5.268-4.299-9.538-9.6-9.538l.016.175zm5.6 13.544a2.912 2.912 0 0 1-1.936 1.35 3.76 3.76 0 0 1-1.792-.11c-.545-.17-1.08-.371-1.6-.605a12.775 12.775 0 0 1-4.896-4.292 5.507 5.507 0 0 1-1.168-2.94A3.17 3.17 0 0 1 6.784 6.54c.194-.22.473-.346.768-.35H8c.176 0 .416 0 .64.493.224.493.816 1.971.896 2.114.08.155.08.339 0 .493-.071.173-.168.334-.288.477-.144.175-.304.381-.432.509-.128.127-.288.286-.128.572.435.73.974 1.394 1.6 1.971a8.01 8.01 0 0 0 2.304 1.415c.288.143.464.127.624 0 .16-.127.72-.827.912-1.113.192-.286.384-.238.64-.143s1.68.779 1.968.922c.288.143.464.207.544.334.07.416.03.842-.112 1.24v.048z"/></g></g></svg>