<svg xmlns="http://www.w3.org/2000/svg"
 xmlns:xlink="http://www.w3.org/1999/xlink"
 width="27px" height="27px"  viewBox="0 0 27 27">
<path fill-rule="evenodd"  fill="#444444"
 d="M1.999939,2.0 C1.999939,2.0 25.999939,2.0 25.999939,2.0 C25.999939,2.0 25.999939,26.0 25.999939,26.0 C25.999939,26.0 1.999939,26.0 1.999939,26.0 C1.999939,26.0 1.999939,2.0 1.999939,2.0 ZM22.999634,22.999512 C22.999634,22.999512 21.799805,22.999512 4.999695,22.999512 C3.0115051,22.999512 1.9996033,21.86377 1.9996033,19.999512 C1.9996033,19.999512 1.9996033,19.25 1.9996033,7.9995117 C1.9996033,6.135742 3.0115051,5.0 4.999695,5.0 C4.999695,5.0 22.999634,5.0 22.999634,5.0 C24.987793,5.0 25.999695,6.135742 25.999695,7.9995117 C25.999695,7.9995117 25.999695,8.749512 25.999695,19.999512 C25.999695,21.86377 24.987793,22.999512 22.999634,22.999512 ZM23.999756,7.9995117 C23.999756,7.3554688 23.473877,6.9995117 22.81781,6.9995117 C22.81781,6.9995117 21.635498,6.9995117 4.999695,6.9995117 C4.3435974,6.9995117 3.9995728,7.3554688 3.9995728,7.9995117 C3.9995728,7.9995117 3.9995728,8.333008 3.9995728,19.999512 C3.9995728,20.644043 4.3435974,20.999512 4.999695,20.999512 C4.999695,20.999512 6.3638306,20.999512 22.999634,20.999512 C23.656067,20.999512 24.005798,20.47705 24.005798,19.833008 C24.005798,19.833008 23.999756,19.666504 23.999756,7.9995117 ZM13.554016,16.846191 C13.3966675,16.9458 13.2178955,16.999023 13.036072,16.999023 C12.7612915,16.999023 12.497498,16.878906 12.303284,16.665527 C12.108765,16.451172 11.999695,16.161621 11.999695,15.858887 C11.999695,15.858887 11.999695,15.858887 11.999695,12.152344 C11.9956665,11.743164 12.191162,11.362305 12.512848,11.15625 C12.833954,10.949219 13.231873,10.947754 13.554016,11.152344 C13.554016,11.152344 16.481323,12.999023 16.481323,12.999023 C16.481323,12.999023 16.481323,12.999023 16.481323,13.025879 C16.801636,13.230469 16.99878,13.605957 16.99878,14.012695 C16.99878,14.419434 16.801636,14.79541 16.481323,14.999023 C16.481323,14.999023 16.481323,14.999023 13.554016,16.846191 Z"/>
</svg>