<svg xmlns="http://www.w3.org/2000/svg"
 xmlns:xlink="http://www.w3.org/1999/xlink"
 width="27px" height="27px"  viewBox="0 0 27 27">
<path fill-rule="evenodd"  fill="#ffffff"
 d="M1.9998779,1.9997559 C1.9998779,1.9997559 25.999878,1.9997559 25.999878,1.9997559 C25.999878,1.9997559 25.999878,26.0 25.999878,26.0 C25.999878,26.0 1.9998779,26.0 1.9998779,26.0 C1.9998779,26.0 1.9998779,1.9997559 1.9998779,1.9997559 ZM6.999756,21.999756 C6.999756,21.999756 10.999756,21.999756 20.999878,21.999756 C22.656738,21.999756 23.999878,20.656738 23.999878,19.0 C23.999878,18.012207 23.999878,15.375488 23.999878,8.999756 C23.999878,7.3430176 22.656738,5.999756 20.999878,5.999756 C20.999878,5.999756 16.999756,5.999756 10.949829,5.999756 C10.83374,6.013916 10.721436,6.0515137 10.619873,6.109619 C10.590088,6.1052246 10.559448,6.1052246 10.529541,6.109619 C10.427002,6.1574707 10.332397,6.2216797 10.249512,6.2995605 C10.249512,6.2995605 4.249634,12.299561 4.249634,12.299561 C4.171997,12.382324 4.108032,12.476807 4.0598145,12.57959 C4.0598145,12.57959 4.0598145,12.57959 4.0598145,12.669678 C4.0305176,12.757568 4.010254,12.847656 3.9997559,12.939697 C3.9997559,12.960205 3.9997559,12.977051 3.9997559,12.999756 C3.9997559,13.737793 3.9997559,14.624756 3.9997559,19.0 C3.9997559,20.656738 5.3428955,21.999756 6.999756,21.999756 ZM18.999756,17.999756 C18.999756,17.999756 20.812744,17.999756 21.999878,17.999756 C21.999878,18.625 21.999878,18.282959 21.999878,19.0 C21.999878,19.552002 21.55188,19.999512 20.999878,19.999512 C20.999878,19.999512 16.999756,19.999512 6.999756,19.999512 C6.447632,19.999512 5.999756,19.552002 5.999756,19.0 C5.999756,19.0 5.999756,14.999268 5.999756,14.999268 C8.795044,14.999268 16.901123,14.999268 21.999878,14.999268 C21.999878,15.319336 21.999878,15.643555 21.999878,15.999512 C21.34375,15.999512 20.39502,15.999512 18.999756,15.999512 C18.447266,15.999512 17.999756,16.447266 17.999756,16.999756 C17.999756,17.552002 18.447266,17.999756 18.999756,17.999756 ZM10.999756,7.999756 C10.999756,7.999756 15.999878,7.999756 20.999878,7.999756 C21.55188,7.999756 21.999878,8.44751 21.999878,8.999756 C21.999878,9.493164 21.999878,11.41748 21.999878,12.999756 C19.204346,12.999756 11.098389,12.999756 5.999756,12.999756 C5.999756,12.999756 10.999756,7.999756 10.999756,7.999756 Z"/>
</svg>