<svg xmlns="http://www.w3.org/2000/svg"
 xmlns:xlink="http://www.w3.org/1999/xlink"
 width="27px" height="27px"  viewBox="0 0 27 27">
<path fill-rule="evenodd"  fill="#ffffff"
 d="M2.0,1.9997559 C2.0,1.9997559 25.999878,1.9997559 25.999878,1.9997559 C25.999878,1.9997559 25.999878,26.0 25.999878,26.0 C25.999878,26.0 2.0,26.0 2.0,26.0 C2.0,26.0 2.0,1.9997559 2.0,1.9997559 ZM14.299683,14.21875 C15.379028,13.284912 15.999512,11.926758 15.999512,10.498779 C15.999512,7.7373047 13.761108,5.498535 10.999512,5.498535 C8.238403,5.498535 5.9995117,7.7373047 5.9995117,10.498779 C5.9995117,11.926758 6.619995,13.284912 7.699341,14.21875 C4.840332,15.513428 3.0025635,18.360107 2.9995117,21.49878 C2.9995117,22.05127 3.4472656,22.499268 3.9995117,22.499268 C4.5516357,22.499268 4.9995117,22.05127 4.9995117,21.49878 C4.9995117,18.185303 7.685669,15.499023 10.999512,15.499023 C14.313232,15.499023 16.999512,18.185303 16.999512,21.49878 C16.999512,22.05127 17.447388,22.499268 17.999512,22.499268 C18.551636,22.499268 18.999634,22.05127 18.999634,21.49878 C18.99646,18.360107 17.15857,15.513428 14.299683,14.21875 C14.299683,14.21875 14.299683,14.21875 14.299683,14.21875 ZM7.9995117,10.498779 C7.9995117,8.841797 9.342651,7.4987793 10.999512,7.4987793 C12.656372,7.4987793 13.999512,8.841797 13.999512,10.498779 C13.999512,12.155762 12.656372,13.499023 10.999512,13.499023 C9.342651,13.499023 7.9995117,12.155762 7.9995117,10.498779 ZM21.56128,8.44873 C20.75415,6.653076 18.968506,5.498047 16.999512,5.498535 C16.447388,5.498535 15.999512,5.946533 15.999512,6.4990234 C15.999512,7.0510254 16.447388,7.4987793 16.999512,7.4987793 C18.656372,7.4987793 19.999512,8.841797 19.999512,10.498779 C19.99646,11.567383 19.425049,12.554199 18.499634,13.088379 C18.197998,13.262939 18.00879,13.581055 17.999512,13.929199 C17.99121,14.27417 18.161133,14.599121 18.449585,14.7890625 C18.8396,15.048828 18.8396,15.048828 18.8396,15.048828 C18.8396,15.048828 18.969727,15.1188965 18.969727,15.1188965 C21.430786,16.286133 22.99121,18.774902 22.969727,21.49878 C22.969727,22.05127 23.417114,22.499268 23.969238,22.499268 C24.521973,22.499268 24.969238,22.05127 24.969238,21.49878 C24.985962,18.378906 23.38562,15.472656 20.739624,13.819092 C22.046875,12.346436 22.36853,10.244873 21.56128,8.44873 Z"/>
</svg>