<svg xmlns="http://www.w3.org/2000/svg"
 xmlns:xlink="http://www.w3.org/1999/xlink"
 width="27px" height="27px"  viewBox="0 0 27 27">
<path fill-rule="evenodd"  fill="#ffffff"
 d="M1.9998779,1.9997559 C1.9998779,1.9997559 26.0,1.9997559 26.0,1.9997559 C26.0,1.9997559 26.0,25.999756 26.0,25.999756 C26.0,25.999756 1.9998779,25.999756 1.9998779,25.999756 C1.9998779,25.999756 1.9998779,1.9997559 1.9998779,1.9997559 ZM19.669434,8.031006 C18.832886,5.614502 16.556763,3.9941406 13.999878,3.9941406 C11.442383,3.9941406 9.16626,5.614502 8.329834,8.031006 C7.493286,10.4470215 8.280273,13.128418 10.289551,14.709473 C6.866577,16.08081 4.4761963,19.224121 4.069458,22.889648 C4.009033,23.44165 4.4073486,23.938477 4.9594727,23.999512 C5.512085,24.060059 6.009033,23.661621 6.06958,23.109375 C6.524292,19.061768 9.946777,16.002441 14.019531,16.002441 C18.092407,16.002441 21.515137,19.061768 21.969604,23.109375 C22.026123,23.618164 22.457764,24.002441 22.969604,23.999512 C23.07959,23.999512 23.07959,23.999512 23.07959,23.999512 C23.625244,23.936523 24.01831,23.445557 23.959473,22.899414 C23.551147,19.223633 21.147095,16.07373 17.709839,14.709473 C19.71936,13.128418 20.505981,10.4470215 19.669434,8.031006 ZM9.999756,9.999268 C9.999756,7.790283 11.790283,5.9992676 13.999878,5.9992676 C16.208862,5.9992676 17.999878,7.790283 17.999878,9.999268 C17.999878,12.208252 16.208862,13.999512 13.999878,13.999512 C11.790283,13.999512 9.999756,12.208252 9.999756,9.999268 Z"/>
</svg>