<svg xmlns="http://www.w3.org/2000/svg"
 xmlns:xlink="http://www.w3.org/1999/xlink"
 width="27px" height="27px"  viewBox="0 0 27 27">
<path fill-rule="evenodd"  fill="#ffffff"
 d="M1.999939,2.0 C1.999939,2.0 25.999878,2.0 25.999878,2.0 C25.999878,2.0 25.999878,25.999756 25.999878,25.999756 C25.999878,25.999756 1.999939,25.999756 1.999939,25.999756 C1.999939,25.999756 1.999939,2.0 1.999939,2.0 ZM6.999756,21.999512 C6.447571,21.999512 5.999634,21.552002 5.999634,20.999756 C5.999634,6.999756 5.999634,6.999756 5.999634,6.999756 C5.999634,6.4472656 6.447571,5.9995117 6.999756,5.9995117 C11.999634,5.9995117 11.999634,5.9995117 11.999634,5.9995117 C11.999634,5.9995117 11.999634,8.999512 11.999634,8.999512 C11.999634,10.656738 13.342834,11.999512 14.999695,11.999512 C17.999695,11.999512 17.999695,11.999512 17.999695,11.999512 C17.999695,12.551758 18.44757,12.999512 18.999756,12.999512 C19.551819,12.999512 19.999756,12.551758 19.999756,11.999512 C19.999756,10.999512 19.999756,10.999512 19.999756,10.999512 C19.999756,10.999512 19.999756,10.999512 19.999756,10.939453 C19.989258,10.8479 19.969116,10.75708 19.939697,10.669678 C19.939697,10.57959 19.939697,10.57959 19.939697,10.57959 C19.89148,10.476807 19.827515,10.382568 19.74945,10.299805 C19.74945,10.299805 19.74945,10.299805 19.74945,10.299805 C19.74945,10.299805 13.749878,4.2995605 13.749878,4.2995605 C13.749878,4.2995605 13.749878,4.2995605 13.749878,4.2995605 C13.667053,4.221924 13.572388,4.157715 13.469849,4.1098633 C13.439636,4.1054688 13.409424,4.1054688 13.379578,4.1098633 C13.059692,3.9995117 13.059692,3.9995117 13.059692,3.9995117 C13.059692,3.9995117 6.999756,3.9995117 6.999756,3.9995117 C5.3428345,3.9995117 3.9996338,5.3425293 3.9996338,6.999756 C3.9996338,20.999756 3.9996338,20.999756 3.9996338,20.999756 C3.9996338,22.656494 5.3428345,23.999756 6.999756,23.999756 C11.999634,23.999756 11.999634,23.999756 11.999634,23.999756 C12.551819,23.999756 12.999756,23.552002 12.999756,22.999756 C12.999756,22.447266 12.551819,21.999512 11.999634,21.999512 C11.999634,21.999512 6.999756,21.999512 6.999756,21.999512 ZM13.999756,7.409424 C13.999756,7.409424 16.589539,9.999756 16.589539,9.999756 C16.589539,9.999756 14.999695,9.999756 14.999695,9.999756 C14.44751,9.999756 13.999756,9.552002 13.999756,8.999512 C13.999756,7.409424 13.999756,7.409424 13.999756,7.409424 ZM8.999695,9.999756 C8.44751,9.999756 7.999695,10.44751 7.999695,10.999512 C7.999695,11.552002 8.44751,11.999512 8.999695,11.999512 C9.999695,11.999512 9.999695,11.999512 9.999695,11.999512 C10.55188,11.999512 10.999634,11.552002 10.999634,10.999512 C10.999634,10.44751 10.55188,9.999756 9.999695,9.999756 C8.999695,9.999756 8.999695,9.999756 8.999695,9.999756 ZM21.789856,15.659424 C21.02295,15.821045 20.223633,15.650635 19.5896,15.189453 C19.23816,14.932861 18.761292,14.932861 18.409851,15.189453 C17.77539,15.649658 16.97644,15.820068 16.209595,15.659424 C15.910339,15.595215 15.598389,15.671631 15.362488,15.866455 C15.126404,16.06128 14.992737,16.35376 14.999695,16.659668 C14.999695,18.999756 14.999695,18.999756 14.999695,18.999756 C14.996643,20.450928 15.678467,21.819092 16.839844,22.689697 C18.39978,23.79956 18.39978,23.79956 18.39978,23.79956 C18.755188,24.066162 19.244202,24.066162 19.59967,23.79956 C21.159607,22.639648 21.159607,22.639648 21.159607,22.639648 C22.306885,21.779541 22.987,20.43335 22.999695,18.999756 C22.999695,16.629639 22.999695,16.629639 22.999695,16.629639 C22.997559,16.330322 22.862183,16.048096 22.629822,15.859619 C22.394531,15.669434 22.085693,15.595703 21.789856,15.659424 ZM20.999756,18.999756 C21.009338,19.81372 20.639465,20.586182 19.999756,21.089355 C18.999756,21.80957 18.999756,21.80957 18.999756,21.80957 C18.999756,21.80957 17.999695,21.089355 17.999695,21.089355 C17.359924,20.586182 16.990051,19.81372 16.999695,18.999756 C16.999695,17.719482 16.999695,17.719482 16.999695,17.719482 C17.699158,17.687988 18.38269,17.5 18.999756,17.169434 C19.6167,17.5 20.300293,17.687988 20.999756,17.719482 C20.999756,18.999756 20.999756,18.999756 20.999756,18.999756 ZM8.999695,18.049805 C8.44751,18.049805 7.999695,18.497559 7.999695,19.049805 C7.999695,19.60205 8.44751,20.049316 8.999695,20.049316 C11.999634,20.049316 11.999634,20.049316 11.999634,20.049316 C12.551819,20.049316 12.999756,19.60205 12.999756,19.049805 C12.999756,18.497559 12.551819,18.049805 11.999634,18.049805 C11.999634,18.049805 8.999695,18.049805 8.999695,18.049805 ZM8.999695,14.049805 C8.44751,14.049805 7.999695,14.497314 7.999695,15.049561 C7.999695,15.601807 8.44751,16.04956 8.999695,16.04956 C12.999756,16.04956 12.999756,16.04956 12.999756,16.04956 C13.551819,16.04956 13.999756,15.601807 13.999756,15.049561 C13.999756,14.497314 13.551819,14.049805 12.999756,14.049805 C12.999756,14.049805 8.999695,14.049805 8.999695,14.049805 Z"/>
</svg>