<svg xmlns="http://www.w3.org/2000/svg"
 xmlns:xlink="http://www.w3.org/1999/xlink"
 width="39px" height="39px"  viewBox="0 0 39 39">
<path fill-rule="evenodd"  fill="#17bebb"
 d="M1.9998779,2.0 C1.9998779,2.0 37.99994,2.0 37.99994,2.0 C37.99994,2.0 37.99994,37.999756 37.99994,37.999756 C37.99994,37.999756 1.9998779,37.999756 1.9998779,37.999756 C1.9998779,37.999756 1.9998779,2.0 1.9998779,2.0 ZM31.999817,20.999512 C31.999817,20.999512 20.999878,20.999512 20.999878,20.999512 C20.999878,20.999512 20.999878,32.999756 20.999878,32.999756 C20.999878,33.551514 20.551147,33.999756 19.999756,33.999756 C19.448486,33.999756 18.999756,33.551514 18.999756,32.999756 C18.999756,32.999756 18.999756,20.999512 18.999756,20.999512 C18.999756,20.999512 8.999817,20.999512 8.999817,20.999512 C8.999817,20.999512 8.999817,32.999756 8.999817,32.999756 C8.999817,33.551514 8.551086,33.999756 7.999817,33.999756 C7.4484253,33.999756 6.999695,33.551514 6.999695,32.999756 C6.999695,32.999756 6.999695,5.999756 6.999695,5.999756 C6.999695,5.4484863 7.4484253,4.999756 7.999817,4.999756 C8.551086,4.999756 8.999817,5.4484863 8.999817,5.999756 C8.999817,5.999756 8.999817,18.999756 8.999817,18.999756 C8.999817,18.999756 18.999756,18.999756 18.999756,18.999756 C18.999756,18.999756 18.999756,5.999756 18.999756,5.999756 C18.999756,5.4484863 19.448486,4.999756 19.999756,4.999756 C20.551147,4.999756 20.999878,5.4484863 20.999878,5.999756 C20.999878,5.999756 20.999878,18.999756 20.999878,18.999756 C20.999878,18.999756 30.999817,18.999756 30.999817,18.999756 C30.999817,18.999756 30.999817,5.999756 30.999817,5.999756 C30.999817,5.4484863 31.44806,4.999756 31.999817,4.999756 C32.551514,4.999756 32.999878,5.4484863 32.999878,5.999756 C32.999878,5.999756 32.999878,19.999512 32.999878,19.999512 C32.999878,20.550781 32.551514,20.999512 31.999817,20.999512 Z"/>
</svg>