<svg xmlns="http://www.w3.org/2000/svg"
 xmlns:xlink="http://www.w3.org/1999/xlink"
 width="27px" height="27px"  viewBox="0 0 27 27">
<path fill-rule="evenodd"  fill="#ffffff"
 d="M2.0,2.0 C2.0,2.0 25.999878,2.0 25.999878,2.0 C25.999878,2.0 25.999878,25.999756 25.999878,25.999756 C25.999878,25.999756 2.0,25.999756 2.0,25.999756 C2.0,25.999756 2.0,2.0 2.0,2.0 ZM13.999512,6.409424 C11.3602295,4.446045 7.6519775,4.8571777 5.505615,7.3500977 C3.3597412,9.84375 3.505249,13.571777 5.8395996,15.889648 C11.8396,21.939453 11.8396,21.939453 11.8396,21.939453 C13.010864,23.10962 14.908325,23.10962 16.079712,21.939453 C22.079712,15.889648 22.079712,15.889648 22.079712,15.889648 C23.273438,14.723389 23.952637,13.129883 23.96753,11.461182 C23.98291,9.792969 23.332153,8.187256 22.160034,6.999756 C19.956543,4.819336 16.493408,4.5688477 13.999512,6.409424 ZM14.8671875,20.69873 C14.67395,20.895508 14.411377,21.00586 14.137085,21.00586 C13.863281,21.00586 13.60022,20.895508 13.4071045,20.69873 C7.2387695,14.4765625 7.2387695,14.4765625 7.2387695,14.4765625 C5.5616455,12.747559 5.5616455,9.983643 7.2387695,8.25415 C8.948242,6.5515137 11.69751,6.5515137 13.4071045,8.25415 C13.60022,8.450684 13.863281,8.561035 14.137085,8.561035 C14.411377,8.561035 14.67395,8.450684 14.8671875,8.25415 C16.614258,6.852539 19.126099,6.9960938 20.705078,8.588379 C22.283447,10.180908 22.425903,12.714355 21.035889,14.4765625 C21.035889,14.4765625 14.8671875,20.69873 14.8671875,20.69873 Z"/>
</svg>