<svg xmlns="http://www.w3.org/2000/svg"
 xmlns:xlink="http://www.w3.org/1999/xlink"
 width="27px" height="27px"  viewBox="0 0 27 27">
<path fill-rule="evenodd"  fill="#222222"
 d="M2.0,1.9997559 C2.0,1.9997559 26.0,1.9997559 26.0,1.9997559 C26.0,1.9997559 26.0,25.999878 26.0,25.999878 C26.0,25.999878 2.0,25.999878 2.0,25.999878 C2.0,25.999878 2.0,1.9997559 2.0,1.9997559 ZM16.589355,12.997681 C16.589355,12.997681 13.289551,9.708618 13.289551,9.708618 C12.897339,9.315918 12.897339,8.68042 13.289551,8.288086 C13.681274,7.8963623 14.317139,7.8963623 14.709473,8.288086 C19.70935,13.288086 19.70935,13.288086 19.70935,13.288086 C19.800537,13.383423 19.871948,13.495972 19.919434,13.618774 C20.019287,13.861572 20.019287,14.135132 19.919434,14.378296 C19.871948,14.501709 19.800537,14.612915 19.70935,14.708984 C14.709473,19.708374 14.709473,19.708374 14.709473,19.708374 C14.521851,19.897705 14.265869,20.003662 13.999512,20.003662 C13.732544,20.003662 13.477173,19.897705 13.289551,19.708374 C13.100342,19.52063 12.993774,19.264893 12.993774,18.997925 C12.993774,18.731934 13.100342,18.475952 13.289551,18.288208 C16.589355,14.998047 16.589355,14.998047 16.589355,14.998047 C16.589355,14.998047 8.999512,14.998047 8.999512,14.998047 C8.446899,14.998047 7.9993896,14.550293 7.9993896,13.998169 C7.9993896,13.445801 8.446899,12.997681 8.999512,12.997681 C8.999512,12.997681 16.589355,12.997681 16.589355,12.997681 Z"/>
</svg>