<svg xmlns="http://www.w3.org/2000/svg"
 xmlns:xlink="http://www.w3.org/1999/xlink"
 width="21px" height="21px"  viewBox="0 0 21 21">
<path fill-rule="evenodd"  fill="#222222"
 d="M1.9998779,1.9996948 C1.9998779,1.9996948 19.999939,1.9996948 19.999939,1.9996948 C19.999939,1.9996948 19.999939,20.0 19.999939,20.0 C19.999939,20.0 1.9998779,20.0 1.9998779,20.0 C1.9998779,20.0 1.9998779,1.9996948 1.9998779,1.9996948 ZM15.904602,8.748596 C15.904602,8.748596 8.659546,4.593628 8.659546,4.593628 C7.8615723,4.1329956 6.8778076,4.1359253 6.0820312,4.6011963 C5.286621,5.066162 4.802002,5.9224243 4.8120728,6.843689 C4.8120728,15.183716 4.8120728,15.183716 4.8120728,15.183716 C4.8120728,15.864136 5.0824585,16.51648 5.5635986,16.99823 C6.0443726,17.478638 6.6967773,17.748901 7.3773804,17.748901 C7.8274536,17.74823 8.27002,17.62915 8.659546,17.404114 C15.904602,13.249084 15.904602,13.249084 15.904602,13.249084 C16.696838,12.7901 17.185059,11.944397 17.185059,11.028687 C17.185059,10.1137085 16.696838,9.268005 15.904602,8.809021 C15.904602,8.748596 15.904602,8.748596 15.904602,8.748596 Z"/>
</svg>