<svg xmlns="http://www.w3.org/2000/svg"
 xmlns:xlink="http://www.w3.org/1999/xlink"
 width="27px" height="16px"  viewBox="0 0 27 16">
<path fill-rule="evenodd"  fill="#777777"
 d="M2.0,2.0 C2.0,2.0 25.999939,2.0 25.999939,2.0 C25.999939,2.0 25.999939,13.999756 25.999939,13.999756 C25.999939,13.999756 2.0,13.999756 2.0,13.999756 C2.0,13.999756 2.0,2.0 2.0,2.0 ZM5.409729,6.9976807 C5.409729,6.9976807 8.709534,3.7086182 8.709534,3.7086182 C9.101685,3.315918 9.101685,2.68042 8.709534,2.288086 C8.317688,1.8963623 7.6818237,1.8963623 7.289673,2.288086 C2.2896118,7.288086 2.2896118,7.288086 2.2896118,7.288086 C2.1985474,7.383423 2.1271362,7.4959717 2.079712,7.6187744 C1.9798584,7.8615723 1.9798584,8.135132 2.079712,8.378296 C2.1271362,8.501709 2.1985474,8.612915 2.2896118,8.708984 C7.289673,13.708374 7.289673,13.708374 7.289673,13.708374 C7.477234,13.897705 7.7330933,14.003662 7.9995117,14.003662 C8.266418,14.003662 8.521973,13.897705 8.709534,13.708374 C8.898804,13.52063 9.005249,13.264893 9.005249,12.997925 C9.005249,12.731934 8.898804,12.475952 8.709534,12.288208 C5.409729,8.998047 5.409729,8.998047 5.409729,8.998047 C5.409729,8.998047 12.999573,8.998047 12.999573,8.998047 C13.552185,8.998047 13.999573,8.550293 13.999573,7.998169 C13.999573,7.445801 13.552185,6.9976807 12.999573,6.9976807 C12.999573,6.9976807 5.409729,6.9976807 5.409729,6.9976807 Z"/>
</svg>