<svg xmlns="http://www.w3.org/2000/svg"
 xmlns:xlink="http://www.w3.org/1999/xlink"
 width="27px" height="27px"  viewBox="0 0 27 27">
<path fill-rule="evenodd"  fill="#ffffff"
 d="M1.9998779,1.9997559 C1.9998779,1.9997559 26.0,1.9997559 26.0,1.9997559 C26.0,1.9997559 26.0,26.0 26.0,26.0 C26.0,26.0 1.9998779,26.0 1.9998779,26.0 C1.9998779,26.0 1.9998779,1.9997559 1.9998779,1.9997559 ZM6.710449,20.75 C6.864624,21.124268 7.2297363,21.368896 7.6346436,21.368896 C8.039551,21.368896 8.404541,21.124268 8.559204,20.75 C8.713501,20.375488 8.627197,19.945312 8.339722,19.659668 C7.949707,19.272217 7.3199463,19.272217 6.9295654,19.659668 C6.642456,19.945312 6.555664,20.375488 6.710449,20.75 ZM21.289307,7.2490234 C21.134644,6.874756 20.769531,6.630371 20.364746,6.630371 C19.959839,6.630371 19.594727,6.874756 19.440063,7.2490234 C19.285889,7.623535 19.372559,8.054199 19.659668,8.3396 C20.049683,8.727539 20.67981,8.727539 21.069824,8.3396 C21.356812,8.054199 21.443481,7.623535 21.289307,7.2490234 ZM8.559204,7.2490234 C8.404541,6.874756 8.039551,6.630371 7.6346436,6.630371 C7.2297363,6.630371 6.864624,6.874756 6.710449,7.2490234 C6.555664,7.623535 6.642456,8.054199 6.9295654,8.3396 C7.3199463,8.727539 7.949707,8.727539 8.339722,8.3396 C8.627197,8.054199 8.713501,7.623535 8.559204,7.2490234 ZM19.440063,20.75 C19.594727,21.124268 19.959839,21.368896 20.364746,21.368896 C20.769531,21.368896 21.134644,21.124268 21.289307,20.75 C21.443481,20.375488 21.356812,19.945312 21.069824,19.659668 C20.67981,19.272217 20.049683,19.272217 19.659668,19.659668 C19.372559,19.945312 19.285889,20.375488 19.440063,20.75 ZM21.409912,12.999756 C21.409912,12.999756 22.709595,11.709473 22.709595,11.709473 C23.101807,11.317627 23.101807,10.681641 22.709595,10.289795 C22.317871,9.897705 21.681885,9.897705 21.289673,10.289795 C18.589966,12.999756 18.589966,12.999756 18.589966,12.999756 C18.589966,12.999756 16.409912,12.999756 16.409912,12.999756 C16.409912,12.999756 18.709595,10.709717 18.709595,10.709717 C19.101685,10.317383 19.101685,9.681641 18.709595,9.289551 C18.317871,8.897461 17.682007,8.897461 17.289795,9.289551 C14.999634,11.589844 14.999634,11.589844 14.999634,11.589844 C14.999634,11.589844 14.999634,9.409668 14.999634,9.409668 C14.999634,9.409668 17.709595,6.7094727 17.709595,6.7094727 C18.101807,6.317383 18.101807,5.6816406 17.709595,5.289551 C17.317871,4.897705 16.682007,4.897705 16.289795,5.289551 C14.999634,6.5895996 14.999634,6.5895996 14.999634,6.5895996 C14.999634,6.5895996 14.999634,4.9995117 14.999634,4.9995117 C14.999634,4.4472656 14.551758,3.9995117 13.999634,3.9995117 C13.44751,3.9995117 12.999634,4.4472656 12.999634,4.9995117 C12.999634,6.5895996 12.999634,6.5895996 12.999634,6.5895996 C12.999634,6.5895996 11.709473,5.289551 11.709473,5.289551 C11.317749,4.897705 10.682007,4.897705 10.289795,5.289551 C9.897461,5.6816406 9.897461,6.317383 10.289795,6.7094727 C12.999634,9.409668 12.999634,9.409668 12.999634,9.409668 C12.999634,9.409668 12.999634,11.589844 12.999634,11.589844 C12.999634,11.589844 10.709595,9.289551 10.709595,9.289551 C10.317871,8.897461 9.682007,8.897461 9.289673,9.289551 C8.897461,9.681641 8.897461,10.317383 9.289673,10.709717 C11.589966,12.999756 11.589966,12.999756 11.589966,12.999756 C11.589966,12.999756 9.40979,12.999756 9.40979,12.999756 C9.40979,12.999756 6.7094727,10.289795 6.7094727,10.289795 C6.317749,9.897705 5.681885,9.897705 5.289795,10.289795 C4.897583,10.681641 4.897583,11.317627 5.289795,11.709473 C6.5898438,12.999756 6.5898438,12.999756 6.5898438,12.999756 C6.5898438,12.999756 4.999634,12.999756 4.999634,12.999756 C4.44751,12.999756 3.9996338,13.44751 3.9996338,14.0 C3.9996338,14.552246 4.44751,14.999268 4.999634,14.999268 C6.5898438,14.999268 6.5898438,14.999268 6.5898438,14.999268 C6.5898438,14.999268 5.289795,16.28955 5.289795,16.28955 C5.100464,16.47754 4.9938965,16.73291 4.9938965,16.999756 C4.9938965,17.266357 5.100464,17.521729 5.289795,17.709473 C5.477295,17.898926 5.7331543,18.005371 5.999634,18.005371 C6.2664795,18.005371 6.5219727,17.898926 6.7094727,17.709473 C9.40979,14.999268 9.40979,14.999268 9.40979,14.999268 C9.40979,14.999268 11.589966,14.999268 11.589966,14.999268 C11.589966,14.999268 9.289673,17.289795 9.289673,17.289795 C9.100342,17.47754 8.994019,17.733154 8.994019,17.999756 C8.994019,18.266357 9.100342,18.521729 9.289673,18.709473 C9.477295,18.898926 9.733276,19.005615 9.999634,19.005615 C10.266602,19.005615 10.521973,18.898926 10.709595,18.709473 C12.999634,16.409668 12.999634,16.409668 12.999634,16.409668 C12.999634,16.409668 12.999634,18.589844 12.999634,18.589844 C12.999634,18.589844 10.289795,21.28955 10.289795,21.28955 C9.897461,21.68164 9.897461,22.317383 10.289795,22.709473 C10.682007,23.101807 11.317749,23.101807 11.709473,22.709473 C12.999634,21.409424 12.999634,21.409424 12.999634,21.409424 C12.999634,21.409424 12.999634,22.999756 12.999634,22.999756 C12.999634,23.552002 13.44751,23.999756 13.999634,23.999756 C14.551758,23.999756 14.999634,23.552002 14.999634,22.999756 C14.999634,21.409424 14.999634,21.409424 14.999634,21.409424 C14.999634,21.409424 16.289795,22.709473 16.289795,22.709473 C16.477295,22.898926 16.733276,23.005371 16.999634,23.005371 C17.266602,23.005371 17.521973,22.898926 17.709595,22.709473 C17.898804,22.521729 18.005371,22.266357 18.005371,21.999756 C18.005371,21.733154 17.898804,21.477295 17.709595,21.28955 C14.999634,18.589844 14.999634,18.589844 14.999634,18.589844 C14.999634,18.589844 14.999634,16.409668 14.999634,16.409668 C14.999634,16.409668 17.289795,18.709473 17.289795,18.709473 C17.477295,18.898926 17.733276,19.005615 17.999634,19.005615 C18.266602,19.005615 18.521973,18.898926 18.709595,18.709473 C18.898804,18.521729 19.005371,18.266357 19.005371,17.999756 C19.005371,17.733154 18.898804,17.47754 18.709595,17.289795 C16.409912,14.999268 16.409912,14.999268 16.409912,14.999268 C16.409912,14.999268 18.589966,14.999268 18.589966,14.999268 C18.589966,14.999268 21.289673,17.709473 21.289673,17.709473 C21.477295,17.898926 21.733154,18.005371 21.999756,18.005371 C22.266602,18.005371 22.521973,17.898926 22.709595,17.709473 C22.898926,17.521729 23.005371,17.266357 23.005371,16.999756 C23.005371,16.73291 22.898926,16.47754 22.709595,16.28955 C21.409912,14.999268 21.409912,14.999268 21.409912,14.999268 C21.409912,14.999268 22.999756,14.999268 22.999756,14.999268 C23.551758,14.999268 23.999634,14.552246 23.999634,14.0 C23.999634,13.44751 23.551758,12.999756 22.999756,12.999756 C22.999756,12.999756 21.409912,12.999756 21.409912,12.999756 Z"/>
</svg>