<svg xmlns="http://www.w3.org/2000/svg"
 xmlns:xlink="http://www.w3.org/1999/xlink"
 width="39px" height="39px"  viewBox="0 0 39 39">
<path fill-rule="evenodd"  fill="#efd8c9"
 d="M2.0,2.0 C2.0,2.0 38.0,2.0 38.0,2.0 C38.0,2.0 38.0,37.999756 38.0,37.999756 C38.0,37.999756 2.0,37.999756 2.0,37.999756 C2.0,37.999756 2.0,2.0 2.0,2.0 ZM9.286316,30.0 C8.952515,30.0 8.641357,29.834717 8.455139,29.55835 C6.8459473,27.168701 5.9989014,24.38208 6.0063477,21.499268 C6.0063477,13.503662 12.508179,6.9995117 20.499329,6.9995117 C28.490662,6.9995117 34.99237,13.503662 34.99237,21.498535 C35.000244,24.38086 34.152832,27.166748 32.543213,29.55835 C32.35785,29.832764 32.048523,29.997559 31.716309,29.997559 C31.510376,29.997559 31.318481,29.938965 31.153198,29.827637 C30.931458,29.678467 30.7807,29.451904 30.730347,29.189209 C30.679932,28.929443 30.735657,28.656006 30.88324,28.438477 C34.35791,23.240479 33.435425,16.213867 28.73816,12.091064 C26.45819,10.090088 23.532288,8.988281 20.499329,8.988281 C17.466064,8.988281 14.540527,10.090088 12.260071,12.091064 C7.5632935,16.213867 6.640869,23.240479 10.1137085,28.43628 C10.264465,28.659912 10.318787,28.926514 10.268005,29.189209 C10.216736,29.451904 10.066345,29.678467 9.844666,29.828613 C9.678955,29.939941 9.485779,30.0 9.286316,30.0 C9.286316,30.0 9.286316,30.0 9.286316,30.0 ZM17.500671,27.006836 C17.236877,27.006836 16.977417,26.899658 16.790771,26.711182 C16.600098,26.521484 16.49231,26.262695 16.49231,25.998047 C16.49231,25.729492 16.597473,25.477783 16.788574,25.287354 C16.788574,25.287354 18.163269,23.912354 18.163269,23.912354 C18.163269,23.912354 18.088318,23.634033 18.088318,23.634033 C18.033142,23.42627 18.003296,23.209229 18.000671,22.9917 C18.000671,21.619629 19.121582,20.498535 20.499329,20.498535 C20.707031,20.500732 20.923584,20.530762 21.13562,20.587402 C21.13562,20.587402 21.41394,20.661377 21.41394,20.661377 C21.41394,20.661377 25.785522,16.286621 25.785522,16.286621 C25.97522,16.097168 26.227661,15.991943 26.496277,15.991943 C26.765015,15.991943 27.017822,16.097168 27.20752,16.286621 C27.599243,16.679688 27.599243,17.318115 27.20752,17.71045 C27.20752,17.71045 22.83545,22.084229 22.83545,22.084229 C22.83545,22.084229 22.9104,22.362793 22.9104,22.362793 C22.965698,22.570557 22.994995,22.787354 22.998047,23.005127 C22.998047,24.377197 21.877075,25.498047 20.499329,25.498047 C20.291199,25.496094 20.075256,25.46582 19.863037,25.409424 C19.863037,25.409424 19.584839,25.334717 19.584839,25.334717 C19.584839,25.334717 18.211914,26.710205 18.211914,26.710205 C18.023865,26.899658 17.764893,27.006836 17.500671,27.006836 Z"/>
</svg>